<mxfile host="app.diagrams.net" modified="2023-07-05T08:20:46.808Z" agent="Mozilla/5.0 (Macintosh; Intel Mac OS X 10_15_7) AppleWebKit/537.36 (KHTML, like Gecko) Chrome/114.0.0.0 Safari/537.36" version="21.5.2" etag="GMGV8yP2UyfltMG8cojn" type="github">
  <diagram name="Page-1" id="yyx77Ps_T0n8dxyA0u4G">
    <mxGraphModel>
      <root>
        <mxCell id="0" />
        <mxCell id="1" parent="0" />
      </root>
    </mxGraphModel>
  </diagram>
</mxfile>
